<svg id="SvgjsSvg1000" xmlns="http://www.w3.org/2000/svg" version="1.1" xmlns:xlink="http://www.w3.org/1999/xlink" xmlns:svgjs="http://svgjs.com/svgjs" width="1196" height="1255.59375"><defs id="SvgjsDefs1001"><marker id="SvgjsMarker1131" markerWidth="14" markerHeight="10" refX="10" refY="5" viewBox="0 0 14 10" orient="auto" markerUnits="userSpaceOnUse" stroke-dasharray="0,0"><path id="SvgjsPath1132" d="M0 0L14 5L0 10L0 0 " fill="#323232" stroke="#323232" stroke-width="1"></path></marker><marker id="SvgjsMarker1141" markerWidth="14" markerHeight="10" refX="10" refY="5" viewBox="0 0 14 10" orient="auto" markerUnits="userSpaceOnUse" stroke-dasharray="0,0"><path id="SvgjsPath1142" d="M0 0L14 5L0 10L0 0 " fill="#323232" stroke="#323232" stroke-width="1"></path></marker><marker id="SvgjsMarker1151" markerWidth="14" markerHeight="10" refX="10" refY="5" viewBox="0 0 14 10" orient="auto" markerUnits="userSpaceOnUse" stroke-dasharray="0,0"><path id="SvgjsPath1152" d="M0 0L14 5L0 10L0 0 " fill="#323232" stroke="#323232" stroke-width="1"></path></marker><marker id="SvgjsMarker1187" markerWidth="14" markerHeight="10" refX="10" refY="5" viewBox="0 0 14 10" orient="auto" markerUnits="userSpaceOnUse" stroke-dasharray="0,0"><path id="SvgjsPath1188" d="M0 0L14 5L0 10L0 0 " fill="#323232" stroke="#323232" stroke-width="1"></path></marker><marker id="SvgjsMarker1191" markerWidth="14" markerHeight="10" refX="10" refY="5" viewBox="0 0 14 10" orient="auto" markerUnits="userSpaceOnUse" stroke-dasharray="0,0"><path id="SvgjsPath1192" d="M0 0L14 5L0 10L0 0 " fill="#323232" stroke="#323232" stroke-width="1"></path></marker><marker id="SvgjsMarker1205" markerWidth="14" markerHeight="10" refX="10" refY="5" viewBox="0 0 14 10" orient="auto" markerUnits="userSpaceOnUse" stroke-dasharray="0,0"><path id="SvgjsPath1206" d="M0 0L14 5L0 10L0 0 " fill="#323232" stroke="#323232" stroke-width="1"></path></marker><marker id="SvgjsMarker1225" markerWidth="14" markerHeight="10" refX="10" refY="5" viewBox="0 0 14 10" orient="auto" markerUnits="userSpaceOnUse" stroke-dasharray="0,0"><path id="SvgjsPath1226" d="M0 0L14 5L0 10L0 0 " fill="#323232" stroke="#323232" stroke-width="1"></path></marker><marker id="SvgjsMarker1229" markerWidth="14" markerHeight="10" refX="10" refY="5" viewBox="0 0 14 10" orient="auto" markerUnits="userSpaceOnUse" stroke-dasharray="0,0"><path id="SvgjsPath1230" d="M0 0L14 5L0 10L0 0 " fill="#323232" stroke="#323232" stroke-width="1"></path></marker><marker id="SvgjsMarker1287" markerWidth="14" markerHeight="10" refX="10" refY="5" viewBox="0 0 14 10" orient="auto" markerUnits="userSpaceOnUse" stroke-dasharray="0,0"><path id="SvgjsPath1288" d="M0 0L14 5L0 10L0 0 " fill="#323232" stroke="#323232" stroke-width="1"></path></marker><marker id="SvgjsMarker1291" markerWidth="14" markerHeight="10" refX="10" refY="5" viewBox="0 0 14 10" orient="auto" markerUnits="userSpaceOnUse" stroke-dasharray="0,0"><path id="SvgjsPath1292" d="M0 0L14 5L0 10L0 0 " fill="#323232" stroke="#323232" stroke-width="1"></path></marker><marker id="SvgjsMarker1295" markerWidth="14" markerHeight="10" refX="10" refY="5" viewBox="0 0 14 10" orient="auto" markerUnits="userSpaceOnUse" stroke-dasharray="0,0"><path id="SvgjsPath1296" d="M0 0L14 5L0 10L0 0 " fill="#323232" stroke="#323232" stroke-width="1"></path></marker><marker id="SvgjsMarker1299" markerWidth="14" markerHeight="10" refX="10" refY="5" viewBox="0 0 14 10" orient="auto" markerUnits="userSpaceOnUse" stroke-dasharray="0,0"><path id="SvgjsPath1300" d="M0 0L14 5L0 10L0 0 " fill="#323232" stroke="#323232" stroke-width="1"></path></marker><marker id="SvgjsMarker1303" markerWidth="14" markerHeight="10" refX="10" refY="5" viewBox="0 0 14 10" orient="auto" markerUnits="userSpaceOnUse" stroke-dasharray="0,0"><path id="SvgjsPath1304" d="M0 0L14 5L0 10L0 0 " fill="#323232" stroke="#323232" stroke-width="1"></path></marker><marker id="SvgjsMarker1313" markerWidth="14" markerHeight="10" refX="10" refY="5" viewBox="0 0 14 10" orient="auto" markerUnits="userSpaceOnUse" stroke-dasharray="0,0"><path id="SvgjsPath1314" d="M0 0L14 5L0 10L0 0 " fill="#9c27b0" stroke="#9c27b0" stroke-width="1"></path></marker><marker id="SvgjsMarker1321" markerWidth="14" markerHeight="10" refX="10" refY="5" viewBox="0 0 14 10" orient="auto" markerUnits="userSpaceOnUse" stroke-dasharray="0,0"><path id="SvgjsPath1322" d="M0 0L14 5L0 10L0 0 " fill="#323232" stroke="#323232" stroke-width="1"></path></marker><marker id="SvgjsMarker1325" markerWidth="14" markerHeight="10" refX="10" refY="5" viewBox="0 0 14 10" orient="auto" markerUnits="userSpaceOnUse" stroke-dasharray="0,0"><path id="SvgjsPath1326" d="M0 0L14 5L0 10L0 0 " fill="#323232" stroke="#323232" stroke-width="1"></path></marker><marker id="SvgjsMarker1329" markerWidth="14" markerHeight="10" refX="10" refY="5" viewBox="0 0 14 10" orient="auto" markerUnits="userSpaceOnUse" stroke-dasharray="0,0"><path id="SvgjsPath1330" d="M0 0L14 5L0 10L0 0 " fill="#9c27b0" stroke="#9c27b0" stroke-width="1"></path></marker><marker id="SvgjsMarker1333" markerWidth="14" markerHeight="10" refX="10" refY="5" viewBox="0 0 14 10" orient="auto" markerUnits="userSpaceOnUse" stroke-dasharray="0,0"><path id="SvgjsPath1334" d="M0 0L14 5L0 10L0 0 " fill="#1976d2" stroke="#1976d2" stroke-width="1"></path></marker><marker id="SvgjsMarker1341" markerWidth="14" markerHeight="10" refX="10" refY="5" viewBox="0 0 14 10" orient="auto" markerUnits="userSpaceOnUse" stroke-dasharray="0,0"><path id="SvgjsPath1342" d="M0 0L14 5L0 10L0 0 " fill="#323232" stroke="#323232" stroke-width="1"></path></marker><marker id="SvgjsMarker1349" markerWidth="14" markerHeight="10" refX="10" refY="5" viewBox="0 0 14 10" orient="auto" markerUnits="userSpaceOnUse" stroke-dasharray="0,0"><path id="SvgjsPath1350" d="M0 0L14 5L0 10L0 0 " fill="#323232" stroke="#323232" stroke-width="1"></path></marker><marker id="SvgjsMarker1353" markerWidth="14" markerHeight="10" refX="10" refY="5" viewBox="0 0 14 10" orient="auto" markerUnits="userSpaceOnUse" stroke-dasharray="0,0"><path id="SvgjsPath1354" d="M0 0L14 5L0 10L0 0 " fill="#f44336" stroke="#f44336" stroke-width="1"></path></marker></defs><g id="SvgjsG1007" transform="translate(25,232.60524665551907)"><path id="SvgjsPath1008" d="M0 0L1146.2875660470925 0L1146.2875660470925 997.8843366778144L0 997.8843366778144Z " stroke-dasharray="10,6" stroke="rgba(50,50,50,1)" stroke-width="2" fill-opacity="1" fill="#ffffcc"></path><g id="SvgjsG1009"><text id="SvgjsText1010" font-family="微软雅黑" text-anchor="middle" font-size="13px" width="1127px" fill="#323232" font-weight="400" align="middle" lineHeight="125%" font-style="" opacity="1" y="488.3171683389072" transform="rotate(0)"></text></g></g><g id="SvgjsG1011" transform="translate(58.954232713758984,281.15625)"><path id="SvgjsPath1012" d="M0 4Q0 0 4 0L1074.3791006195745 0Q1078.3791006195745 0 1078.3791006195745 4L1078.3791006195745 468.66666666666674Q1078.3791006195745 472.66666666666674 1074.3791006195745 472.66666666666674L4 472.66666666666674Q0 472.66666666666674 0 468.66666666666674Z " stroke-dasharray="10,6" stroke="rgba(50,50,50,1)" stroke-width="2" fill-opacity="1" fill="#ffcc99"></path><g id="SvgjsG1013"><text id="SvgjsText1014" font-family="微软雅黑" text-anchor="middle" font-size="13px" width="1059px" fill="#323232" font-weight="400" align="middle" lineHeight="125%" font-style="" opacity="1" y="225.70833333333337" transform="rotate(0)"></text></g></g><g id="SvgjsG1015" transform="translate(25,25.010807555182936)"><path id="SvgjsPath1016" d="M0 4Q0 0 4 0L666 0Q670 0 670 4L670 156.14544244481706Q670 160.14544244481706 666 160.14544244481706L4 160.14544244481706Q0 160.14544244481706 0 156.14544244481706Z " stroke-dasharray="10,6" stroke="rgba(50,50,50,1)" stroke-width="2" fill-opacity="1" fill="#ccffff"></path><g id="SvgjsG1017"><text id="SvgjsText1018" font-family="微软雅黑" text-anchor="middle" font-size="13px" width="650px" fill="#323232" font-weight="400" align="middle" lineHeight="125%" font-style="" opacity="1" y="69.44772122240853" transform="rotate(0)"></text></g></g><g id="SvgjsG1019" transform="translate(25,26.15625)"><path id="SvgjsPath1020" d="M0 0L172.2804474937701 0L172.2804474937701 41L0 41Z " stroke="none" fill="none"></path><g id="SvgjsG1021"><text id="SvgjsText1022" font-family="微软雅黑" text-anchor="middle" font-size="20px" width="173px" fill="#323232" font-weight="700" align="middle" lineHeight="125%" font-style="" opacity="1" y="2.5" transform="rotate(0)"><tspan id="SvgjsTspan1023" dy="25" x="86.5"><tspan id="SvgjsTspan1024" style="text-decoration:;">Mirai Console</tspan></tspan></text></g></g><g id="SvgjsG1025" transform="translate(58.954232713758984,78.7816420691565)"><path id="SvgjsPath1026" d="M0 4Q0 0 4 0L598.7685876406765 0Q602.7685876406765 0 602.7685876406765 4L602.7685876406765 91.99999999999997Q602.7685876406765 95.99999999999997 598.7685876406765 95.99999999999997L4 95.99999999999997Q0 95.99999999999997 0 91.99999999999997Z " stroke-dasharray="10,6" stroke="rgba(50,50,50,1)" stroke-width="2" fill-opacity="1" fill="#b7ffad"></path><g id="SvgjsG1027"><text id="SvgjsText1028" font-family="微软雅黑" text-anchor="middle" font-size="13px" width="583px" fill="#323232" font-weight="400" align="middle" lineHeight="125%" font-style="" opacity="1" y="37.374999999999986" transform="rotate(0)"></text></g></g><g id="SvgjsG1029" transform="translate(61.18532559601638,81.15625)"><path id="SvgjsPath1030" d="M0 0L172.2804474937701 0L172.2804474937701 41L0 41Z " stroke="none" fill="none"></path><g id="SvgjsG1031"><text id="SvgjsText1032" font-family="微软雅黑" text-anchor="middle" font-size="20px" width="173px" fill="#323232" font-weight="700" align="middle" lineHeight="125%" font-style="" opacity="1" y="2.5" transform="rotate(0)"><tspan id="SvgjsTspan1033" dy="25" x="86.5"><tspan id="SvgjsTspan1034" style="text-decoration:;">Mirai API Http</tspan></tspan></text></g></g><g id="SvgjsG1035" transform="translate(248.94674556213022,92.31515538126996)"><path id="SvgjsPath1036" d="M0 4Q0 0 4 0L159.94602147676892 0Q163.94602147676892 0 163.94602147676892 4L163.94602147676892 64.93297337577303Q163.94602147676892 68.93297337577303 159.94602147676892 68.93297337577303L4 68.93297337577303Q0 68.93297337577303 0 64.93297337577303Z " stroke="rgba(50,50,50,1)" stroke-width="2" fill-opacity="1" fill="#ffffff"></path><g id="SvgjsG1037"><text id="SvgjsText1038" font-family="微软雅黑" text-anchor="middle" font-size="15px" width="144px" fill="#323232" font-weight="700" align="middle" lineHeight="125%" font-style="" opacity="1" y="22.591486687886515" transform="rotate(0)"><tspan id="SvgjsTspan1039" dy="18" x="82"><tspan id="SvgjsTspan1040" style="text-decoration:;">Websocket 服务</tspan></tspan></text></g></g><g id="SvgjsG1041" transform="translate(457.769926660612,92.31515538126996)"><path id="SvgjsPath1042" d="M0 4Q0 0 4 0L159.94602147676892 0Q163.94602147676892 0 163.94602147676892 4L163.94602147676892 64.93297337577303Q163.94602147676892 68.93297337577303 159.94602147676892 68.93297337577303L4 68.93297337577303Q0 68.93297337577303 0 64.93297337577303Z " stroke="rgba(50,50,50,1)" stroke-width="2" fill-opacity="1" fill="#ffffff"></path><g id="SvgjsG1043"><text id="SvgjsText1044" font-family="微软雅黑" text-anchor="middle" font-size="15px" width="144px" fill="#323232" font-weight="700" align="middle" lineHeight="125%" font-style="" opacity="1" y="22.591486687886515" transform="rotate(0)"><tspan id="SvgjsTspan1045" dy="18" x="82"><tspan id="SvgjsTspan1046" style="text-decoration:;">Http 服务</tspan></tspan></text></g></g><g id="SvgjsG1047" transform="translate(25,234.15625)"><path id="SvgjsPath1048" d="M0 0L146 0L146 39L0 39Z " stroke="none" fill="none"></path><g id="SvgjsG1049"><text id="SvgjsText1050" font-family="微软雅黑" text-anchor="middle" font-size="20px" width="146px" fill="#323232" font-weight="700" align="middle" lineHeight="125%" font-style="" opacity="1" y="1.5" transform="rotate(0)"><tspan id="SvgjsTspan1051" dy="25" x="73"><tspan id="SvgjsTspan1052" style="text-decoration:;">Amiya Bot</tspan></tspan></text></g></g><g id="SvgjsG1053" transform="translate(83.59266279800819,385.15625)"><path id="SvgjsPath1054" d="M0 0L28.814674403983616 0L28.814674403983616 190L0 190Z " stroke="none" fill="none"></path><g id="SvgjsG1055"><text id="SvgjsText1056" font-family="微软雅黑" text-anchor="middle" font-size="20px" width="29px" fill="#323232" font-weight="700" align="middle" lineHeight="125%" font-style="" opacity="1" y="52" transform="rotate(0)"><tspan id="SvgjsTspan1057" dy="25" x="14.5"><tspan id="SvgjsTspan1058" style="text-decoration:;">核</tspan></tspan><tspan id="SvgjsTspan1059" dy="25" x="14.5"><tspan id="SvgjsTspan1060" style="text-decoration:;">心</tspan></tspan><tspan id="SvgjsTspan1061" dy="25" x="14.5"><tspan id="SvgjsTspan1062" style="text-decoration:;">区</tspan></tspan></text></g></g><g id="SvgjsG1063" transform="translate(152.94674556213022,297.31515538126996)"><path id="SvgjsPath1064" d="M0 4Q0 0 4 0L950.0532544378698 0Q954.0532544378698 0 954.0532544378698 4L954.0532544378698 58.84109461873004Q954.0532544378698 62.84109461873004 950.0532544378698 62.84109461873004L4 62.84109461873004Q0 62.84109461873004 0 58.84109461873004Z " stroke="rgba(50,50,50,1)" stroke-width="2" fill-opacity="1" fill="#f5f5f5"></path><g id="SvgjsG1065"><text id="SvgjsText1066" font-family="微软雅黑" text-anchor="middle" font-size="20px" width="935px" fill="#323232" font-weight="700" align="middle" lineHeight="125%" font-style="" opacity="1" y="13.42054730936502" transform="rotate(0)"><tspan id="SvgjsTspan1067" dy="25" x="477.5"><tspan id="SvgjsTspan1068" style="text-decoration:;">通讯层</tspan></tspan></text></g></g><g id="SvgjsG1069" transform="translate(313.4197563005147,169.32758144767797)"><path id="SvgjsPath1070" d="M17.5 0L35 17.5L23.450000000000003 17.5L23.450000000000003 102.40812124295701L35 102.40812124295701L17.5 119.90812124295701L0 102.40812124295701L11.55 102.40812124295701L11.55 17.5L0 17.5L17.5 0Z " stroke="rgba(50,50,50,1)" stroke-width="2" fill-opacity="1" fill="#ffffff"></path><g id="SvgjsG1071"><text id="SvgjsText1072" font-family="微软雅黑" text-anchor="middle" font-size="13px" width="49px" fill="#323232" font-weight="400" align="middle" lineHeight="125%" font-style="" opacity="1" y="49.329060621478504" transform="rotate(0)"></text></g></g><g id="SvgjsG1073" transform="translate(522.074284248752,169.11730779299546)"><path id="SvgjsPath1074" d="M17.668653150244438 0L35.337306300488876 17.668653150244438L23.675995221327547 17.668653150244438L23.675995221327547 120.32866855232203L11.66131107916133 120.32866855232203L11.66131107916133 17.668653150244438L0 17.668653150244438L17.668653150244438 0Z " stroke="rgba(50,50,50,1)" stroke-width="2" fill-opacity="1" fill="#ffffff"></path><g id="SvgjsG1075"><text id="SvgjsText1076" font-family="微软雅黑" text-anchor="middle" font-size="13px" width="50px" fill="#323232" font-weight="400" align="middle" lineHeight="125%" font-style="" opacity="1" y="55.555767703777114" transform="rotate(0)"></text></g></g><g id="SvgjsG1077" transform="translate(152.94674556213022,385.15625)"><path id="SvgjsPath1078" d="M0 4Q0 0 4 0L609.0532544378698 0Q613.0532544378698 0 613.0532544378698 4L613.0532544378698 186Q613.0532544378698 190 609.0532544378698 190L4 190Q0 190 0 186Z " stroke="rgba(50,50,50,1)" stroke-width="2" fill-opacity="1" fill="#b2ebf2"></path><g id="SvgjsG1079"><text id="SvgjsText1080" font-family="微软雅黑" text-anchor="middle" font-size="13px" width="594px" fill="#323232" font-weight="400" align="middle" lineHeight="125%" font-style="" opacity="1" y="84.375" transform="rotate(0)"></text></g></g><g id="SvgjsG1081" transform="translate(168.46577308978647,385.15625)"><path id="SvgjsPath1082" d="M0 0L28.814674403983616 0L28.814674403983616 190L0 190Z " stroke="none" fill="none"></path><g id="SvgjsG1083"><text id="SvgjsText1084" font-family="微软雅黑" text-anchor="middle" font-size="20px" width="29px" fill="#323232" font-weight="700" align="middle" lineHeight="125%" font-style="" opacity="1" y="39.5" transform="rotate(0)"><tspan id="SvgjsTspan1085" dy="25" x="14.5"><tspan id="SvgjsTspan1086" style="text-decoration:;">消</tspan></tspan><tspan id="SvgjsTspan1087" dy="25" x="14.5"><tspan id="SvgjsTspan1088" style="text-decoration:;">息</tspan></tspan><tspan id="SvgjsTspan1089" dy="25" x="14.5"><tspan id="SvgjsTspan1090" style="text-decoration:;">解</tspan></tspan><tspan id="SvgjsTspan1091" dy="25" x="14.5"><tspan id="SvgjsTspan1092" style="text-decoration:;">析</tspan></tspan></text></g></g><g id="SvgjsG1093" transform="translate(819,385.15625)"><path id="SvgjsPath1094" d="M0 4Q0 0 4 0L284 0Q288 0 288 4L288 186Q288 190 284 190L4 190Q0 190 0 186Z " stroke="rgba(50,50,50,1)" stroke-width="2" fill-opacity="1" fill="#bbdefb"></path><g id="SvgjsG1095"><text id="SvgjsText1096" font-family="微软雅黑" text-anchor="middle" font-size="13px" width="268px" fill="#323232" font-weight="400" align="middle" lineHeight="125%" font-style="" opacity="1" y="84.375" transform="rotate(0)"></text></g></g><g id="SvgjsG1097" transform="translate(835.4657730897865,385.15625)"><path id="SvgjsPath1098" d="M0 0L28.814674403983616 0L28.814674403983616 190L0 190Z " stroke="none" fill="none"></path><g id="SvgjsG1099"><text id="SvgjsText1100" font-family="微软雅黑" text-anchor="middle" font-size="20px" width="29px" fill="#323232" font-weight="700" align="middle" lineHeight="125%" font-style="" opacity="1" y="39.5" transform="rotate(0)"><tspan id="SvgjsTspan1101" dy="25" x="14.5"><tspan id="SvgjsTspan1102" style="text-decoration:;">消</tspan></tspan><tspan id="SvgjsTspan1103" dy="25" x="14.5"><tspan id="SvgjsTspan1104" style="text-decoration:;">息</tspan></tspan><tspan id="SvgjsTspan1105" dy="25" x="14.5"><tspan id="SvgjsTspan1106" style="text-decoration:;">封</tspan></tspan><tspan id="SvgjsTspan1107" dy="25" x="14.5"><tspan id="SvgjsTspan1108" style="text-decoration:;">装</tspan></tspan></text></g></g><g id="SvgjsG1109" transform="translate(412.89276703889914,346.15625)"><path id="SvgjsPath1110" d="M11.55 0L23.450000000000003 0L23.450000000000003 52.5L35 52.5L17.5 70L0 52.5L11.55 52.5L11.55 0Z " stroke="rgba(50,50,50,1)" stroke-width="2" fill-opacity="1" fill="#ffffff"></path><g id="SvgjsG1111"><text id="SvgjsText1112" font-family="微软雅黑" text-anchor="middle" font-size="13px" width="49px" fill="#323232" font-weight="400" align="middle" lineHeight="125%" font-style="" opacity="1" y="20.875" transform="rotate(0)"></text></g></g><g id="SvgjsG1113" transform="translate(956.769926660612,333.65625)"><path id="SvgjsPath1114" d="M17.5 0L35 17.5L23.450000000000003 17.5L23.450000000000003 71L11.55 71L11.55 17.5L0 17.5L17.5 0Z " stroke="rgba(50,50,50,1)" stroke-width="2" fill-opacity="1" fill="#ffffff"></path><g id="SvgjsG1115"><text id="SvgjsText1116" font-family="微软雅黑" text-anchor="middle" font-size="13px" width="49px" fill="#323232" font-weight="400" align="middle" lineHeight="125%" font-style="" opacity="1" y="28.425" transform="rotate(0)"></text></g></g><g id="SvgjsG1117" transform="translate(233.4657730897865,459.32291666666674)"><path id="SvgjsPath1118" d="M0 0L98.86756024354688 0L98.86756024354688 41.66666666666663L0 41.66666666666663Z " stroke="rgba(50,50,50,1)" stroke-width="2" fill-opacity="1" fill="#ffffff"></path><g id="SvgjsG1119"><text id="SvgjsText1120" font-family="微软雅黑" text-anchor="middle" font-size="16px" width="79px" fill="#323232" font-weight="400" align="middle" lineHeight="125%" font-style="" opacity="1" y="6.833333333333314" transform="rotate(0)"><tspan id="SvgjsTspan1121" dy="20" x="49.5"><tspan id="SvgjsTspan1122" style="text-decoration:;">格式化</tspan></tspan></text></g></g><g id="SvgjsG1123" transform="translate(358.90236641706514,459.32291666666686)"><path id="SvgjsPath1124" d="M0 0L98.86756024354688 0L98.86756024354688 41.66666666666663L0 41.66666666666663Z " stroke="rgba(50,50,50,1)" stroke-width="2" fill-opacity="1" fill="#ffffff"></path><g id="SvgjsG1125"><text id="SvgjsText1126" font-family="微软雅黑" text-anchor="middle" font-size="16px" width="79px" fill="#323232" font-weight="400" align="middle" lineHeight="125%" font-style="" opacity="1" y="6.833333333333314" transform="rotate(0)"><tspan id="SvgjsTspan1127" dy="20" x="49.5"><tspan id="SvgjsTspan1128" style="text-decoration:;">分类</tspan></tspan></text></g></g><g id="SvgjsG1129"><path id="SvgjsPath1130" d="M333.33333333333337 480.15625000000006L345.6178498751992 480.15625000000006L345.6178498751992 480.1562500000003L355.3023664170651 480.1562500000003 " stroke="#323232" stroke-width="2" fill="none" marker-end="url(#SvgjsMarker1131)"></path></g><g id="SvgjsG1133" transform="translate(484.33895974434387,459.3229166666671)"><path id="SvgjsPath1134" d="M0 0L98.86756024354688 0L98.86756024354688 41.66666666666663L0 41.66666666666663Z " stroke="rgba(50,50,50,1)" stroke-width="2" fill-opacity="1" fill="#ffffff"></path><g id="SvgjsG1135"><text id="SvgjsText1136" font-family="微软雅黑" text-anchor="middle" font-size="16px" width="79px" fill="#323232" font-weight="400" align="middle" lineHeight="125%" font-style="" opacity="1" y="6.833333333333314" transform="rotate(0)"><tspan id="SvgjsTspan1137" dy="20" x="49.5"><tspan id="SvgjsTspan1138" style="text-decoration:;">预处理</tspan></tspan></text></g></g><g id="SvgjsG1139"><path id="SvgjsPath1140" d="M458.769926660612 480.15625000000017L471.05444320247796 480.15625000000017L471.05444320247796 480.1562500000005L480.73895974434384 480.1562500000005 " stroke="#323232" stroke-width="2" fill="none" marker-end="url(#SvgjsMarker1141)"></path></g><g id="SvgjsG1143" transform="translate(609.7755530716227,459.32291666666714)"><path id="SvgjsPath1144" d="M0 0L98.86756024354688 0L98.86756024354688 41.66666666666663L0 41.66666666666663Z " stroke="rgba(50,50,50,1)" stroke-width="2" fill-opacity="1" fill="#ffffff"></path><g id="SvgjsG1145"><text id="SvgjsText1146" font-family="微软雅黑" text-anchor="middle" font-size="16px" width="79px" fill="#323232" font-weight="400" align="middle" lineHeight="125%" font-style="" opacity="1" y="6.833333333333314" transform="rotate(0)"><tspan id="SvgjsTspan1147" dy="20" x="49.5"><tspan id="SvgjsTspan1148" style="text-decoration:;">二次封装</tspan></tspan></text></g></g><g id="SvgjsG1149"><path id="SvgjsPath1150" d="M584.2065199878907 480.1562500000004L596.4910365297567 480.1562500000004L596.4910365297567 480.15625000000045L606.1755530716226 480.15625000000045 " stroke="#323232" stroke-width="2" fill="none" marker-end="url(#SvgjsMarker1151)"></path></g><g id="SvgjsG1153" transform="translate(924.8361465388382,427.6562499999997)"><path id="SvgjsPath1154" d="M0 0L98.86756024354688 0L98.86756024354688 41.66666666666663L0 41.66666666666663Z " stroke="rgba(50,50,50,1)" stroke-width="2" fill-opacity="1" fill="#ffffff"></path><g id="SvgjsG1155"><text id="SvgjsText1156" font-family="微软雅黑" text-anchor="middle" font-size="16px" width="79px" fill="#323232" font-weight="400" align="middle" lineHeight="125%" font-style="" opacity="1" y="6.833333333333314" transform="rotate(0)"><tspan id="SvgjsTspan1157" dy="20" x="49.5"><tspan id="SvgjsTspan1158" style="text-decoration:;">封装</tspan></tspan></text></g></g><g id="SvgjsG1159" transform="translate(924.8361465388382,500.9895833333338)"><path id="SvgjsPath1160" d="M0 0L98.86756024354688 0L98.86756024354688 41.66666666666663L0 41.66666666666663Z " stroke="rgba(50,50,50,1)" stroke-width="2" fill-opacity="1" fill="#ffffff"></path><g id="SvgjsG1161"><text id="SvgjsText1162" font-family="微软雅黑" text-anchor="middle" font-size="16px" width="79px" fill="#323232" font-weight="400" align="middle" lineHeight="125%" font-style="" opacity="1" y="6.833333333333314" transform="rotate(0)"><tspan id="SvgjsTspan1163" dy="20" x="49.5"><tspan id="SvgjsTspan1164" style="text-decoration:;">构建消息</tspan></tspan></text></g></g><g id="SvgjsG1165" transform="translate(152.94674556213022,600.1562499999999)"><path id="SvgjsPath1166" d="M0 4Q0 0 4 0L950.0532544378698 0Q954.0532544378698 0 954.0532544378698 4L954.0532544378698 123.00000000000011Q954.0532544378698 127.00000000000011 950.0532544378698 127.00000000000011L4 127.00000000000011Q0 127.00000000000011 0 123.00000000000011Z " stroke="rgba(50,50,50,1)" stroke-width="2" fill-opacity="1" fill="#f5f5f5"></path><g id="SvgjsG1167"><text id="SvgjsText1168" font-family="微软雅黑" text-anchor="middle" font-size="13px" width="935px" fill="#323232" font-weight="400" align="middle" lineHeight="125%" font-style="" opacity="1" y="52.87500000000006" transform="rotate(0)"></text></g></g><g id="SvgjsG1169" transform="translate(167.84648307284345,600.1562499999999)"><path id="SvgjsPath1170" d="M0 0L30.05325443786981 0L30.05325443786981 127L0 127Z " stroke="none" fill="none"></path><g id="SvgjsG1171"><text id="SvgjsText1172" font-family="微软雅黑" text-anchor="middle" font-size="20px" width="31px" fill="#323232" font-weight="700" align="middle" lineHeight="125%" font-style="" opacity="1" y="20.5" transform="rotate(0)"><tspan id="SvgjsTspan1173" dy="25" x="15.5"><tspan id="SvgjsTspan1174" style="text-decoration:;">分</tspan></tspan><tspan id="SvgjsTspan1175" dy="25" x="15.5"><tspan id="SvgjsTspan1176" style="text-decoration:;">配</tspan></tspan><tspan id="SvgjsTspan1177" dy="25" x="15.5"><tspan id="SvgjsTspan1178" style="text-decoration:;">器</tspan></tspan></text></g></g><g id="SvgjsG1179" transform="translate(237.89955321155992,628.6562499999999)"><path id="SvgjsPath1180" d="M0 37.58333333333343L45 0L90 37.58333333333343L45 75.16666666666686L0 37.58333333333343Z " stroke="rgba(50,50,50,1)" stroke-width="2" fill-opacity="1" fill="#ffffff"></path><g id="SvgjsG1181"><text id="SvgjsText1182" font-family="微软雅黑" text-anchor="middle" font-size="13px" width="70px" fill="#323232" font-weight="400" align="middle" lineHeight="125%" font-style="" opacity="1" y="26.958333333333428" transform="rotate(0)"><tspan id="SvgjsTspan1183" dy="16" x="45"><tspan id="SvgjsTspan1184" style="text-decoration:;">类型判断</tspan></tspan></text></g></g><g id="SvgjsG1185"><path id="SvgjsPath1186" d="M659.2093331933961 501.9895833333337L659.2093331933961 539.8229166666667L282.8995532115599 539.8229166666667L282.8995532115599 625.0562499999999 " stroke="#323232" stroke-width="2" fill="none" marker-end="url(#SvgjsMarker1187)"></path></g><g id="SvgjsG1189"><path id="SvgjsPath1190" d="M282.8995532115599 704.8229166666667L282.8995532115599 788.7769772881452L282.89955321155986 788.7769772881452L282.89955321155986 870.1310379096236 " stroke="#323232" stroke-width="2" fill="none" marker-end="url(#SvgjsMarker1191)"></path><rect id="SvgjsRect1193" width="34" height="16" x="265.8995532115599" y="779.4769772881452" fill="#ffffff"></rect><text id="SvgjsText1194" font-family="微软雅黑" text-anchor="middle" font-size="13px" width="34px" fill="#323232" font-weight="400" align="top" lineHeight="16px" font-style="" opacity="1" y="776.8519772881452" transform="rotate(0)"><tspan id="SvgjsTspan1195" dy="16" x="282.8995532115599"><tspan id="SvgjsTspan1196" style="text-decoration:;">Event</tspan></tspan></text></g><g id="SvgjsG1197" transform="translate(435.7859231446185,645.4062500000001)"><path id="SvgjsPath1198" d="M0 0L151.32770692232282 0L151.32770692232282 41.666666666666515L0 41.666666666666515Z " stroke="rgba(50,50,50,1)" stroke-width="2" fill-opacity="1" fill="#ffffff"></path><g id="SvgjsG1199"><text id="SvgjsText1200" font-family="微软雅黑" text-anchor="middle" font-size="16px" width="132px" fill="#323232" font-weight="400" align="middle" lineHeight="125%" font-style="" opacity="1" y="6.8333333333332575" transform="rotate(0)"><tspan id="SvgjsTspan1201" dy="20" x="76"><tspan id="SvgjsTspan1202" style="text-decoration:;">中间件处理</tspan></tspan></text></g></g><g id="SvgjsG1203"><path id="SvgjsPath1204" d="M328.8995532115599 666.2395833333333L381.84273817808923 666.2395833333333L381.84273817808923 666.2395833333336L432.18592314461847 666.2395833333336 " stroke="#323232" stroke-width="2" fill="none" marker-end="url(#SvgjsMarker1205)"></path><rect id="SvgjsRect1207" width="54" height="16" x="352" y="658.15625" fill="#ffffff"></rect><text id="SvgjsText1208" font-family="微软雅黑" text-anchor="middle" font-size="13px" width="54px" fill="#323232" font-weight="400" align="top" lineHeight="16px" font-style="" opacity="1" y="655.53125" transform="rotate(0)"><tspan id="SvgjsTspan1209" dy="16" x="379"><tspan id="SvgjsTspan1210" style="text-decoration:;">Message</tspan></tspan></text></g><g id="SvgjsG1211" transform="translate(825.9685862952913,645.4062499999999)"><path id="SvgjsPath1212" d="M0 0L98.86756024354688 0L98.86756024354688 41.66666666666663L0 41.66666666666663Z " stroke="rgba(244,67,54,1)" stroke-width="2" fill-opacity="1" fill="#ffffff"></path><g id="SvgjsG1213"><text id="SvgjsText1214" font-family="微软雅黑" text-anchor="middle" font-size="16px" width="79px" fill="#323232" font-weight="400" align="middle" lineHeight="125%" font-style="" opacity="1" y="6.833333333333314" transform="rotate(0)"><tspan id="SvgjsTspan1215" dy="20" x="49.5"><tspan id="SvgjsTspan1216" style="text-decoration:;">选择</tspan></tspan></text></g></g><g id="SvgjsG1217" transform="translate(971.0556409463264,645.4062499999999)"><path id="SvgjsPath1218" d="M0 0L98.86756024354688 0L98.86756024354688 41.66666666666663L0 41.66666666666663Z " stroke="rgba(244,67,54,1)" stroke-width="2" fill-opacity="1" fill="#ffffff"></path><g id="SvgjsG1219"><text id="SvgjsText1220" font-family="微软雅黑" text-anchor="middle" font-size="16px" width="79px" fill="#323232" font-weight="400" align="middle" lineHeight="125%" font-style="" opacity="1" y="6.833333333333314" transform="rotate(0)"><tspan id="SvgjsTspan1221" dy="20" x="49.5"><tspan id="SvgjsTspan1222" style="text-decoration:;">执行功能</tspan></tspan></text></g></g><g id="SvgjsG1223"><path id="SvgjsPath1224" d="M974.2699266606116 499.9895833333338L974.2699266606116 485.1562500000001L974.2699266606116 485.1562500000001L974.2699266606116 472.92291666666637 " stroke="#323232" stroke-width="2" fill="none" marker-end="url(#SvgjsMarker1225)"></path></g><g id="SvgjsG1227"><path id="SvgjsPath1228" d="M888.7453079097038 1090.009960194046L875.7293854819491 947.3161541603472 " stroke-dasharray="10,5,3,5" stroke="#323232" stroke-width="2" fill="none" marker-end="url(#SvgjsMarker1229)"></path></g><g id="SvgjsG1231" transform="translate(214.56621987822658,873.7310379096236)"><path id="SvgjsPath1232" d="M0 0L136.66666666666669 0L136.66666666666669 70L0 70L0 0ZM20 0L20 70M0 14L136.66666666666669 14 " stroke="rgba(50,50,50,1)" stroke-width="2" fill-opacity="1" fill="#ffffff"></path><g id="SvgjsG1233"><text id="SvgjsText1234" font-family="微软雅黑" text-anchor="middle" font-size="16px" width="117px" fill="#323232" font-weight="400" align="middle" lineHeight="125%" font-style="" opacity="1" y="28" transform="rotate(0)"><tspan id="SvgjsTspan1235" dy="20" x="78.5"><tspan id="SvgjsTspan1236" style="text-decoration:;">事件注册器</tspan></tspan></text></g></g><g id="SvgjsG1237" transform="translate(495.25,875.0643712429572)"><path id="SvgjsPath1238" d="M27.000942867011847 0L168.78406355785685 0C183.06689184068503 0 183.06689184068503 67.3333333333328 168.78406355785685 67.3333333333328L27.000942867011847 67.3333333333328C-9.000314289003951 67.3333333333328 -9.000314289003951 0 27.000942867011847 0ZM168.78406355785685 0C154.7562857800792 0 154.7562857800792 67.3333333333328 168.78406355785685 67.3333333333328C154.7562857800792 67.3333333333328 154.7562857800792 0 168.78406355785685 0 " stroke="rgba(50,50,50,1)" stroke-width="2" fill-opacity="1" fill="#ffffff"></path><g id="SvgjsG1239"><text id="SvgjsText1240" font-family="微软雅黑" text-anchor="middle" font-size="16px" width="145px" fill="#323232" font-weight="400" align="middle" lineHeight="125%" font-style="" opacity="1" y="19.6666666666664" transform="rotate(0)"><tspan id="SvgjsTspan1241" dy="20" x="72.5"><tspan id="SvgjsTspan1242" style="text-decoration:;">等待指令储存器</tspan></tspan></text></g></g><g id="SvgjsG1243" transform="translate(807.0690330837315,873.7310379096236)"><path id="SvgjsPath1244" d="M0 0L136.66666666666669 0L136.66666666666669 70L0 70L0 0ZM20 0L20 70M0 14L136.66666666666669 14 " stroke="rgba(50,50,50,1)" stroke-width="2" fill-opacity="1" fill="#ffffff"></path><g id="SvgjsG1245"><text id="SvgjsText1246" font-family="微软雅黑" text-anchor="middle" font-size="16px" width="117px" fill="#323232" font-weight="400" align="middle" lineHeight="125%" font-style="" opacity="1" y="28" transform="rotate(0)"><tspan id="SvgjsTspan1247" dy="20" x="78.5"><tspan id="SvgjsTspan1248" style="text-decoration:;">功能注册器</tspan></tspan></text></g></g><g id="SvgjsG1249" transform="translate(675.2562857800791,1063.6391591525799)"><path id="SvgjsPath1250" d="M10.799999999999999 49C-9 35 3.6 24.5 8.1 21C6.300000000000001 3.5 28.8 0 37.8 7C45 -3.5 67.5 0 67.5 10.5C85.5 7 92.7 21 85.5 38.5C91.8 52.5 85.5 70 64.8 63C60.300000000000004 72.10000000000001 42.3 72.10000000000001 37.8 63C28.8 70 10.799999999999999 66.5 10.799999999999999 49Z " stroke="rgba(50,50,50,1)" stroke-width="2" fill-opacity="1" fill="#ffffff"></path><g id="SvgjsG1251"><text id="SvgjsText1252" font-family="微软雅黑" text-anchor="middle" font-size="13px" width="70px" fill="#323232" font-weight="400" align="middle" lineHeight="125%" font-style="" opacity="1" y="24.375" transform="rotate(0)"><tspan id="SvgjsTspan1253" dy="16" x="45"><tspan id="SvgjsTspan1254" style="text-decoration:;">功能1</tspan></tspan></text></g></g><g id="SvgjsG1255" transform="translate(834.8361465388383,1090.3058258192473)"><path id="SvgjsPath1256" d="M10.799999999999999 49C-9 35 3.6 24.5 8.1 21C6.300000000000001 3.5 28.8 0 37.8 7C45 -3.5 67.5 0 67.5 10.5C85.5 7 92.7 21 85.5 38.5C91.8 52.5 85.5 70 64.8 63C60.300000000000004 72.10000000000001 42.3 72.10000000000001 37.8 63C28.8 70 10.799999999999999 66.5 10.799999999999999 49Z " stroke="rgba(50,50,50,1)" stroke-width="2" fill-opacity="1" fill="#ffffff"></path><g id="SvgjsG1257"><text id="SvgjsText1258" font-family="微软雅黑" text-anchor="middle" font-size="13px" width="70px" fill="#323232" font-weight="400" align="middle" lineHeight="125%" font-style="" opacity="1" y="24.375" transform="rotate(0)"><tspan id="SvgjsTspan1259" dy="16" x="45"><tspan id="SvgjsTspan1260" style="text-decoration:;">功能2</tspan></tspan></text></g></g><g id="SvgjsG1261" transform="translate(979.9232011898733,1020.3058258192473)"><path id="SvgjsPath1262" d="M10.799999999999999 49C-9 35 3.6 24.5 8.1 21C6.300000000000001 3.5 28.8 0 37.8 7C45 -3.5 67.5 0 67.5 10.5C85.5 7 92.7 21 85.5 38.5C91.8 52.5 85.5 70 64.8 63C60.300000000000004 72.10000000000001 42.3 72.10000000000001 37.8 63C28.8 70 10.799999999999999 66.5 10.799999999999999 49Z " stroke="rgba(50,50,50,1)" stroke-width="2" fill-opacity="1" fill="#ffffff"></path><g id="SvgjsG1263"><text id="SvgjsText1264" font-family="微软雅黑" text-anchor="middle" font-size="13px" width="70px" fill="#323232" font-weight="400" align="middle" lineHeight="125%" font-style="" opacity="1" y="24.375" transform="rotate(0)"><tspan id="SvgjsTspan1265" dy="16" x="45"><tspan id="SvgjsTspan1266" style="text-decoration:;">功能n</tspan></tspan></text></g></g><g id="SvgjsG1267" transform="translate(114.56621987822655,1071.1562499999984)"><path id="SvgjsPath1268" d="M0 25L25 0L100 0L100 70L0 70L0 25Z " stroke="rgba(50,50,50,1)" stroke-width="2" fill-opacity="1" fill="#ffffff"></path><g id="SvgjsG1269"><text id="SvgjsText1270" font-family="微软雅黑" text-anchor="middle" font-size="13px" width="80px" fill="#323232" font-weight="400" align="middle" lineHeight="125%" font-style="" opacity="1" y="24.375" transform="rotate(0)"><tspan id="SvgjsTspan1271" dy="16" x="50"><tspan id="SvgjsTspan1272" style="text-decoration:;">事件响应</tspan></tspan></text></g></g><g id="SvgjsG1273" transform="translate(232.89955321155998,1071.1562499999984)"><path id="SvgjsPath1274" d="M0 25L25 0L100 0L100 70L0 70L0 25Z " stroke="rgba(50,50,50,1)" stroke-width="2" fill-opacity="1" fill="#ffffff"></path><g id="SvgjsG1275"><text id="SvgjsText1276" font-family="微软雅黑" text-anchor="middle" font-size="13px" width="80px" fill="#323232" font-weight="400" align="middle" lineHeight="125%" font-style="" opacity="1" y="24.375" transform="rotate(0)"><tspan id="SvgjsTspan1277" dy="16" x="50"><tspan id="SvgjsTspan1278" style="text-decoration:;">事件响应</tspan></tspan></text></g></g><g id="SvgjsG1279" transform="translate(351.2328865448933,1071.1562499999984)"><path id="SvgjsPath1280" d="M0 25L25 0L100 0L100 70L0 70L0 25Z " stroke="rgba(50,50,50,1)" stroke-width="2" fill-opacity="1" fill="#ffffff"></path><g id="SvgjsG1281"><text id="SvgjsText1282" font-family="微软雅黑" text-anchor="middle" font-size="13px" width="80px" fill="#323232" font-weight="400" align="middle" lineHeight="125%" font-style="" opacity="1" y="24.375" transform="rotate(0)"><tspan id="SvgjsTspan1283" dy="16" x="50"><tspan id="SvgjsTspan1284" style="text-decoration:;">事件响应</tspan></tspan></text></g></g><g id="SvgjsG1285"><path id="SvgjsPath1286" d="M282.89955321156 1070.1562499999984L282.89955321156 1007.443643954811L282.8995532115599 1007.443643954811L282.8995532115599 947.3310379096237 " stroke-dasharray="10,5,3,5" stroke="#323232" stroke-width="2" fill="none" marker-end="url(#SvgjsMarker1287)"></path></g><g id="SvgjsG1289"><path id="SvgjsPath1290" d="M165.2467016161319 1070.423484959636L280.4498189551006 946.3689920549283 " stroke-dasharray="10,5,3,5" stroke="#323232" stroke-width="2" fill="none" marker-end="url(#SvgjsMarker1291)"></path></g><g id="SvgjsG1293"><path id="SvgjsPath1294" d="M400.5524048069879 1070.423484959636L285.3492874680192 946.3689920549283 " stroke-dasharray="10,5,3,5" stroke="#323232" stroke-width="2" fill="none" marker-end="url(#SvgjsMarker1295)"></path></g><g id="SvgjsG1297"><path id="SvgjsPath1298" d="M761.7865183276473 1078.9734882769746L873.0867292458191 946.4874530617996 " stroke-dasharray="10,5,3,5" stroke="#323232" stroke-width="2" fill="none" marker-end="url(#SvgjsMarker1299)"></path></g><g id="SvgjsG1301"><path id="SvgjsPath1302" d="M994.4007582029797 1026.0369782708572L878.363161169882 945.7788890838281 " stroke-dasharray="10,5,3,5" stroke="#323232" stroke-width="2" fill="none" marker-end="url(#SvgjsMarker1303)"></path></g><g id="SvgjsG1305" transform="translate(633.4653298105316,631.2395833333333)"><path id="SvgjsPath1306" d="M0 35L45 0L90 35L45 70L0 35Z " stroke="rgba(244,67,54,1)" stroke-width="2" fill-opacity="1" fill="#ffffff"></path><g id="SvgjsG1307"><text id="SvgjsText1308" font-family="微软雅黑" text-anchor="middle" font-size="16px" width="70px" fill="#323232" font-weight="400" align="middle" lineHeight="125%" font-style="" opacity="1" y="21" transform="rotate(0)"><tspan id="SvgjsTspan1309" dy="20" x="45"><tspan id="SvgjsTspan1310" style="text-decoration:;">分配</tspan></tspan></text></g></g><g id="SvgjsG1311"><path id="SvgjsPath1312" d="M678.4653298105316 702.2395833333333L678.4653298105316 788.1519772881452L585.25314289004 788.1519772881452L585.25314289004 871.4643712429572 " stroke-dasharray="10,5,3,5" stroke="#9c27b0" stroke-width="2" fill="none" marker-end="url(#SvgjsMarker1313)"></path><rect id="SvgjsRect1315" width="40" height="16" x="611.8592363502858" y="780.1519772881452" fill="#ffffff"></rect><text id="SvgjsText1316" font-family="微软雅黑" text-anchor="middle" font-size="13px" width="40px" fill="#323232" font-weight="400" align="top" lineHeight="16px" font-style="" opacity="1" y="777.5269772881452" transform="rotate(0)"><tspan id="SvgjsTspan1317" dy="16" x="631.8592363502858"><tspan id="SvgjsTspan1318" style="text-decoration:;">Retrun</tspan></tspan></text></g><g id="SvgjsG1319"><path id="SvgjsPath1320" d="M1020.4894210681 644.4062499999999L1020.4894210681 589.7455357142859L974.2699266606116 589.7455357142859L974.2699266606116 546.2562500000005 " stroke="#323232" stroke-width="2" fill="none" marker-end="url(#SvgjsMarker1321)"></path></g><g id="SvgjsG1323"><path id="SvgjsPath1324" d="M588.1136300669414 666.2395833333334L610.2894799387365 666.2395833333334L610.2894799387365 666.2395833333333L629.8653298105315 666.2395833333333 " stroke="#323232" stroke-width="2" fill="none" marker-end="url(#SvgjsMarker1325)"></path></g><g id="SvgjsG1327"><path id="SvgjsPath1328" d="M585.2531428900395 943.39770457629L585.2531428900395 1098.6391591525799L671.6562857800791 1098.6391591525799 " stroke-dasharray="10,5,3,5" stroke="#9c27b0" stroke-width="2" fill="none" marker-end="url(#SvgjsMarker1329)"></path></g><g id="SvgjsG1331"><path id="SvgjsPath1332" d="M729.2562857800791 1063.33915915258L729.2562857800791 908.7310379096236L678.856285780079 908.7310379096236 " stroke-dasharray="10,5,3,5" stroke="#1976d2" stroke-width="2" fill="none" marker-end="url(#SvgjsMarker1333)"></path><rect id="SvgjsRect1335" width="46" height="16" x="706" y="978.15625" fill="#ffffff"></rect><text id="SvgjsText1336" font-family="微软雅黑" text-anchor="middle" font-size="13px" width="46px" fill="#323232" font-weight="400" align="top" lineHeight="16px" font-style="" opacity="1" y="975.53125" transform="rotate(0)"><tspan id="SvgjsTspan1337" dy="16" x="729"><tspan id="SvgjsTspan1338" style="text-decoration:;">Waiting</tspan></tspan></text></g><g id="SvgjsG1339"><path id="SvgjsPath1340" d="M724.4653298105316 666.2395833333333L774.7169580529114 666.2395833333333L774.7169580529114 666.2395833333335L822.3685862952913 666.2395833333335 " stroke="#323232" stroke-width="2" fill="none" marker-end="url(#SvgjsMarker1341)"></path><rect id="SvgjsRect1343" width="42" height="16" x="746" y="658.15625" fill="#ffffff"></rect><text id="SvgjsText1344" font-family="微软雅黑" text-anchor="middle" font-size="13px" width="42px" fill="#323232" font-weight="400" align="top" lineHeight="16px" font-style="" opacity="1" y="655.53125" transform="rotate(0)"><tspan id="SvgjsTspan1345" dy="16" x="767"><tspan id="SvgjsTspan1346" style="text-decoration:;">Choice</tspan></tspan></text></g><g id="SvgjsG1347"><path id="SvgjsPath1348" d="M925.8361465388382 666.2395833333333L947.9458937425823 666.2395833333333L947.9458937425823 666.2395833333333L967.4556409463264 666.2395833333333 " stroke="#323232" stroke-width="2" fill="none" marker-end="url(#SvgjsMarker1349)"></path></g><g id="SvgjsG1351"><path id="SvgjsPath1352" d="M875.4023664170649 872.7310379096236L875.4023664170649 780.4019772881451L875.4023664170647 780.4019772881451L875.4023664170647 690.6729166666665 " stroke-dasharray="10,5,3,5" stroke="#f44336" stroke-width="2" fill="none" marker-end="url(#SvgjsMarker1353)"></path></g></svg>